<svg id="svg" xmlns="http://www.w3.org/2000/svg" xmlns:xlink="http://www.w3.org/1999/xlink" width="400" height="400" viewBox="0, 0, 400,400"><g id="svgg"><path id="path0" d="M183.984 17.722 C 71.904 27.454,-3.786 137.121,26.161 246.390 C 43.902 311.122,95.608 359.380,163.477 374.550 L 165.625 375.030 165.613 364.273 C 165.598 350.409,166.177 351.120,155.737 352.160 C 131.593 354.566,116.896 348.605,109.239 333.299 C 101.619 318.067,99.408 314.879,90.406 306.143 C 81.287 297.293,80.876 296.356,85.370 294.646 C 92.473 291.942,105.894 299.292,112.595 309.555 C 117.630 317.265,125.495 325.460,130.859 328.584 C 135.793 331.458,152.289 331.964,160.289 329.489 L 164.719 328.118 166.452 322.848 C 168.499 316.625,171.323 310.734,173.916 307.279 C 176.814 303.416,176.411 302.602,171.289 301.968 C 152.760 299.673,132.727 290.848,120.798 279.726 C 94.557 255.258,90.143 206.058,111.263 173.449 L 115.050 167.601 113.351 157.824 C 111.285 145.935,112.460 133.714,116.607 123.967 L 118.210 120.199 122.191 120.712 C 134.016 122.235,145.890 127.186,159.585 136.303 L 164.091 139.303 177.163 136.644 C 196.663 132.677,220.599 132.667,239.670 136.620 L 252.386 139.256 256.467 136.549 C 272.942 125.622,294.475 117.898,298.444 121.491 C 303.823 126.358,305.879 151.332,301.968 164.286 L 300.839 168.026 303.516 170.864 C 321.192 189.604,323.538 234.704,308.335 263.525 C 297.176 284.681,279.495 295.539,245.117 302.346 C 239.853 303.389,239.980 303.078,243.017 307.492 C 244.333 309.405,246.530 313.335,247.900 316.227 L 250.391 321.484 250.781 346.273 L 251.172 371.062 259.375 368.286 C 347.558 338.450,398.268 243.014,374.519 151.583 C 352.518 66.881,271.705 10.104,183.984 17.722 " stroke="none" fill="#000000" fill-rule="evenodd"></path></g></svg>