<?xml version="1.0" standalone="no"?>
<!DOCTYPE svg PUBLIC "-//W3C//DTD SVG 20010904//EN"
 "http://www.w3.org/TR/2001/REC-SVG-20010904/DTD/svg10.dtd">
<svg version="1.0" xmlns="http://www.w3.org/2000/svg"
 width="900.000000pt" height="900.000000pt" viewBox="0 0 900.000000 900.000000"
 preserveAspectRatio="xMidYMid meet">

<g transform="translate(0.000000,900.000000) scale(0.100000,-0.100000)"
fill="#000000" stroke="none">
<path d="M0 4500 l0 -4500 4500 0 4500 0 0 4500 0 4500 -4500 0 -4500 0 0
-4500z m4790 3550 c166 -14 314 -34 440 -59 76 -15 188 -42 253 -60 20 -6 52
-15 70 -20 41 -11 186 -59 212 -70 11 -5 40 -17 65 -26 25 -9 61 -23 80 -32
19 -8 44 -19 55 -23 63 -25 307 -147 362 -181 36 -21 67 -39 69 -39 10 0 245
-161 330 -226 151 -115 252 -205 399 -355 77 -79 151 -158 165 -174 134 -162
194 -240 268 -353 125 -189 239 -399 325 -602 8 -19 21 -51 30 -70 8 -19 20
-51 27 -70 7 -19 16 -44 21 -55 58 -137 137 -458 180 -735 20 -130 23 -181 23
-505 0 -378 -3 -411 -55 -690 -35 -185 -106 -448 -149 -550 -4 -11 -20 -51
-35 -90 -40 -105 -49 -125 -141 -310 -74 -150 -229 -414 -276 -470 -9 -11 -38
-49 -65 -85 -26 -36 -50 -67 -53 -70 -4 -3 -13 -14 -21 -26 -48 -70 -361 -397
-454 -475 -282 -234 -489 -372 -785 -519 -227 -114 -456 -200 -528 -200 -53 1
-115 32 -148 76 l-29 37 -6 641 c-4 410 -10 658 -17 688 -35 148 -95 277 -170
366 -24 29 -43 54 -41 56 2 1 38 8 79 15 202 33 278 48 326 62 17 5 40 9 52 9
11 0 24 5 27 10 3 6 19 10 35 10 16 0 32 5 35 10 3 6 17 10 30 10 13 0 27 5
30 10 3 6 15 10 26 10 10 0 27 4 37 9 9 5 35 17 57 26 87 37 153 71 227 116
463 284 690 774 690 1484 0 202 -5 256 -40 410 -25 107 -105 297 -161 381 -17
25 -31 47 -31 49 0 5 -58 80 -117 153 -20 25 -23 36 -15 44 7 7 12 22 12 34 0
13 4 25 9 28 10 7 14 29 36 208 14 113 14 140 1 255 -19 159 -31 222 -70 338
-32 96 -31 95 -110 95 -73 0 -179 -16 -208 -31 -10 -5 -29 -9 -42 -9 -14 0
-28 -4 -31 -10 -3 -5 -15 -10 -26 -10 -10 0 -27 -4 -37 -9 -9 -5 -28 -13 -42
-19 -157 -64 -298 -137 -447 -234 l-92 -60 -48 12 c-109 26 -130 31 -178 40
-484 96 -1026 89 -1480 -19 -144 -35 -131 -36 -214 18 -126 80 -190 117 -316
176 -145 70 -143 69 -230 96 -38 12 -79 25 -90 29 -77 29 -275 40 -292 18 -15
-20 -55 -147 -74 -238 -24 -111 -33 -194 -33 -310 1 -147 12 -227 54 -377 l12
-43 -54 -67 c-165 -207 -244 -382 -299 -668 -18 -89 -18 -464 -1 -590 26 -190
88 -450 114 -480 4 -5 8 -15 8 -23 0 -8 19 -53 42 -100 111 -230 282 -423 498
-562 66 -43 262 -140 282 -140 8 0 18 -4 24 -8 27 -24 308 -100 449 -122 39
-6 89 -15 113 -20 23 -6 56 -10 72 -10 37 0 38 -10 2 -52 -56 -64 -98 -137
-132 -223 -16 -39 -50 -175 -50 -198 0 -39 -221 -105 -380 -114 -281 -16 -499
106 -680 382 -143 218 -296 337 -493 384 -91 21 -195 8 -234 -32 -37 -37 14
-104 150 -196 40 -26 103 -81 141 -121 104 -110 138 -168 269 -450 58 -125
211 -270 357 -337 119 -55 306 -92 460 -92 66 -1 221 15 346 35 l41 6 6 -128
c4 -71 7 -232 7 -359 0 -202 -3 -235 -19 -270 -22 -48 -44 -69 -94 -90 -69
-29 -127 -17 -327 63 -185 74 -450 205 -530 262 -15 11 -31 20 -34 20 -14 0
-263 173 -360 250 -137 109 -415 376 -506 485 -264 318 -415 559 -575 910 -26
58 -35 78 -54 128 -4 12 -13 33 -19 47 -5 14 -15 41 -22 60 -7 19 -16 44 -20
55 -38 96 -113 388 -140 545 -53 307 -71 628 -51 882 19 230 67 533 111 688
26 94 54 191 72 245 19 59 24 72 47 128 6 15 16 38 21 52 11 27 18 44 47 114
21 52 125 259 173 346 35 64 218 347 229 355 4 3 18 21 31 40 14 19 30 42 37
50 372 461 808 813 1293 1043 145 69 164 77 280 122 52 20 103 41 112 46 10 5
25 9 33 9 8 0 23 4 33 9 9 5 37 15 62 21 25 7 54 16 65 20 11 5 34 11 50 15
17 3 47 10 68 15 192 50 392 83 597 99 139 12 448 12 580 1z m-2578 -5207 c24
-21 23 -50 -2 -58 -21 -7 -49 5 -70 29 -29 36 35 62 72 29z m158 -135 c25 -27
26 -64 2 -77 -23 -12 -77 18 -87 49 -15 47 47 68 85 28z m134 -179 c48 -42 45
-109 -4 -109 -51 0 -95 77 -64 111 22 24 38 24 68 -2z m200 -225 c43 -44 33
-94 -19 -94 -41 0 -85 41 -85 80 0 34 6 40 45 40 22 0 41 -9 59 -26z m263
-150 c37 -28 40 -40 16 -66 -20 -23 -75 -24 -108 -2 -27 18 -34 61 -13 82 20
20 69 14 105 -14z m590 -6 c17 -14 16 -53 -2 -68 -21 -17 -89 -24 -114 -11
-40 22 -19 81 34 94 25 6 66 -1 82 -15z m-299 -28 c21 -13 32 -27 32 -43 0
-35 -19 -47 -77 -47 -42 0 -54 4 -63 20 -16 30 -3 59 33 74 42 19 37 19 75 -4z"/>
</g>
</svg>
