<svg id="svg" xmlns="http://www.w3.org/2000/svg" xmlns:xlink="http://www.w3.org/1999/xlink" width="400" height="400" viewBox="0, 0, 400,400"><g id="svgg"><path id="path0" d="M178.689 1.219 C 101.881 13.172,49.370 84.487,60.582 161.618 C 67.676 210.424,90.750 254.869,158.582 350.391 C 168.347 364.141,179.711 380.315,183.836 386.334 C 192.159 398.479,193.958 400.000,200.000 400.000 C 206.042 400.000,207.841 398.479,216.164 386.334 C 220.289 380.315,231.653 364.141,241.418 350.391 C 309.318 254.774,332.146 210.792,339.400 161.618 C 353.232 67.852,271.930 -13.292,178.689 1.219 M217.969 25.388 C 281.733 34.904,325.860 96.602,314.916 160.938 C 307.263 205.924,285.059 247.060,216.454 343.351 C 208.191 354.948,201.109 364.968,200.715 365.617 C 200.077 366.669,199.923 366.669,199.285 365.617 C 198.891 364.968,191.809 354.948,183.546 343.351 C 114.941 247.060,92.737 205.924,85.084 160.938 C 71.665 82.055,138.801 13.573,217.969 25.388 M182.265 72.247 C 132.890 85.009,113.022 145.052,144.964 184.975 C 181.004 230.019,254.208 214.067,268.412 158.073 C 281.563 106.230,234.025 58.869,182.265 72.247 M213.672 96.509 C 245.671 106.157,256.820 146.801,234.231 171.453 C 205.316 203.009,153.906 182.976,153.906 140.153 C 153.906 109.272,183.742 87.484,213.672 96.509 " stroke="none" fill="#000000" fill-rule="evenodd"></path></g></svg>