<svg id="svg" xmlns="http://www.w3.org/2000/svg" xmlns:xlink="http://www.w3.org/1999/xlink" width="400" height="400" viewBox="0, 0, 400,400"><g id="svgg"><path id="path0" d="M77.796 18.716 C 33.574 28.346,15.421 50.386,16.640 92.969 C 21.203 252.456,153.180 382.582,310.938 383.138 L 329.297 383.203 336.676 380.628 C 360.441 372.334,376.119 351.128,381.584 319.887 C 384.163 305.142,380.740 290.943,372.795 283.426 C 361.437 272.681,317.722 239.667,312.033 237.539 C 293.193 230.490,279.911 234.641,259.341 254.010 L 246.930 265.697 239.676 263.274 C 197.722 249.258,149.022 203.502,136.751 166.571 C 132.604 154.089,132.204 155.251,145.516 141.090 C 161.709 123.863,165.001 117.449,165.001 103.125 C 165.001 88.524,163.894 86.543,136.198 51.563 C 109.333 17.632,101.920 13.463,77.796 18.716 M98.806 36.777 C 103.080 38.377,103.410 38.741,123.249 63.738 C 147.267 94.000,147.270 94.006,147.252 103.499 C 147.234 112.925,146.225 114.678,132.534 129.051 C 126.457 135.432,120.295 142.141,118.842 143.959 L 116.200 147.266 116.650 154.297 C 119.496 198.860,177.394 261.024,233.429 279.683 C 251.785 285.795,251.371 285.911,268.576 269.834 C 285.304 254.203,287.664 252.779,296.875 252.753 C 305.988 252.727,306.288 252.908,335.938 276.214 C 369.089 302.274,369.365 302.814,362.000 327.344 C 353.421 355.915,337.439 367.258,307.422 366.079 C 161.103 360.332,44.928 247.947,34.390 101.953 C 32.387 74.209,34.866 64.040,46.402 52.690 C 59.410 39.892,85.751 31.893,98.806 36.777 " stroke="none" fill="#000000" fill-rule="evenodd"></path></g></svg>